<?xml version="1.0" encoding="UTF-8" standalone="no"?>
<!-- Created with Inkscape (http://www.inkscape.org/) -->

<svg
   width="151.87083mm"
   height="17.497561mm"
   viewBox="0 0 151.87083 17.497561"
   version="1.1"
   id="svg1"
   xml:space="preserve"
   xmlns="http://www.w3.org/2000/svg"
   xmlns:svg="http://www.w3.org/2000/svg"><defs
     id="defs1" /><g
     id="layer1"
     transform="translate(-32.280202,-98.202691)"><g
       id="g1"
       transform="matrix(0.26458333,0,0,0.26458333,27.517622,96.82597)"><path fill="currentColor"
         id="path2"
         d="m -15.068059,-16.796266 c -0.498876,0.0093 -0.937988,0.174805 -1.720703,0.46875 l -1.835937,1.078125 c -1.851563,1.046875 -1.851563,1.046875 -3.375,2.25 l -1,3.0000004 c -1.949816,0.319293 -3.899392,0.640127 -5.847657,0.96875 l -2.402344,0.40625 c -1.393204,0.2264246 -2.768573,0.4250782 -4.121093,0.6660156 -1.598822,-0.2395458 -2.865218,0.1497759 -5.625,1.4726563 -1.022382,0.3956902 -2.024195,0.8805923 -3.003907,1.4863281 2.925602,0.079189 5.666424,0.1240731 8.328125,0 h 4.671875 l -0.199218,-0.4003906 c 3.218737,-0.4434679 6.40857,-1.2595582 9.769531,-2.7050782 4.451982,-2.0611026 7.588501,-3.1135486 9.429688,-7.8945316 -1.6875,-0.5625 -2.426947,-0.808788 -3.06836,-0.796875 z m 106.068361,4.796875 c 4.814827,4.5614156 8.300801,8.5121461 9.999998,15.0000005 -0.0922,0.061485 -0.18456,0.1224968 -0.27539,0.1835938 l -2.724608,1.8164062 c -1.487236,1.239363 -2.596019,2.1882277 -3.4375,3.2285157 -0.522281,0.548841 -1.0399,1.1358894 -1.5625,1.7714848 -0.04616,0.563186 -0.08662,1.043528 -0.119141,1.46289 -0.197881,0.650837 -0.362929,1.381325 -0.505859,2.22461 l -0.375,3.3125 -3,2 c -0.8125,3 -0.8125,3 -1,6 2,2 2,2 5.125,2.125 l 2.875,-0.125 v 2 c 3.361616,-0.920365 6.700708,-1.874778 9.999998,-3 4.16239,-2.516795 7.06526,-3.620404 12,-4 l 1,1 3.125,-0.4375 c 3.70988,-0.538531 7.13353,-0.706403 10.875,-0.5625 2.67391,0.891304 5.23724,1.477315 8,2 -2.16625,-1.822438 -3.98956,-2.996996 -6.6582,-3.984375 l -2.98242,-0.839844 -3.24219,-0.927734 -3.36719,-0.935547 c -3.2022,-0.910466 -6.4053,-1.821833 -9.61133,-2.71875 l -2.13867,-0.59375 c 4.76653,-3.177685 9.76923,-6.7356157 15.35352,-7.7226567 0.28865,0.074574 0.62469,0.147486 1.02929,0.234375 l 2.74219,0.1757813 c 1.62311,0.117249 3.24609,0.225527 4.8711,0.3125 h 0.004 l -1.20703,-1.9843751 c -0.0644,-0.072421 -0.12752,-0.1436095 -0.1875,-0.2109375 9.30144,-2.872218 20.9881,-1.3598579 29.81641,2.1250001 2.81865,1.17017 5.67621,2.1284625 8.57812,3.0703129 l -1,-2.0000004 c -14.83111,-7.62323902 -31.17646,-9.1363012 -47.36328,-5.1582032 0.11337,0.041114 0.23432,0.09372 0.36328,0.1582031 v 2 l -20,9.0000005 -1,-10.0000005 c 1.05916,-1.059161 2.72896,-1.4339757 4.51367,-1.5585937 1.87454,-0.13089 3.87573,0.014261 5.42383,-0.066406 l 2.53711,-0.15625 2.42774,-0.1328125 1.29492,1.0703125 2.80273,-0.15625 v -1 c -2.6142,-0.597791 -5.07144,-1.00345851 -7.7539,-1.13281251 -0.95493,0.0026 -1.88176,0.005213 -2.8086,0.007813 -2.71344,-0.007527 -5.12467,0.0571075 -7.77734,0.63281251 l -1.66016,0.4921875 c -0.29676,-1.74152199 -0.29696,-1.74247405 -1,-4 -1.96892,-2.8051732 -4.008708,-5.4876149 -6.609373,-7.4316408 -0.520037,-0.3888042 -1.062061,-0.7474635 -1.630859,-1.0722655 -1.137529,-0.64959 -2.380218,-1.161611 -3.759766,-1.496094 z M -100.9997,-7.9993906 c 3.278093,3.77895 3.278093,3.7789501 6,8.00000007993 h -5 C -98.794248,3.7034635 -98.794519,3.7034631 -98.861029,7.6646721 c -0.0021,0.794218 -0.0038,1.5650785 -0.0059,2.3359379 0.002,1.624999 0.0032,3.25 0.0039,4.875 -0.0064,2.567763 -0.01121,5.135357 -0.0059,7.703125 0.0042,1.674475 0.0046,3.348958 0.0039,5.023437 -9.9e-4,0.815469 -9.96e-4,1.606954 -0.002,2.398438 0.007,2.675629 -0.0339,5.32451 -0.132812,8 l -1,2 h 8 c -1.132995,-2.933956 -1.132746,-2.935176 -1.113282,-5.912109 0.0054,-1.192407 0.01038,-2.348523 0.01563,-3.50586 0.0033,-1.291601 0.0065,-2.545215 0.0098,-3.798828 0.01276,-1.995025 0.0257,-3.991276 0.0332,-5.986328 0.01205,-3.932749 0.02995,-7.864186 0.05469,-11.7968754 5.16057,7.1618144 10.368054,14.2921994 15.771484,21.2734374 l 1.541016,1.976563 1.449219,1.912109 1.414062,1.791016 c 2.368346,3.052556 2.368346,3.052556 8.824219,6.046875 0.09818,-4.70713 0.199451,-9.414159 0.306641,-14.121094 0.04406,-1.917958 0.08767,-3.835927 0.130859,-5.753906 0.05874,-2.832678 0.118104,-5.665517 0.183594,-8.498047 l 0.0625,-2.681641 c 0.05779,-2.9898999 0.159074,-5.9576785 0.316406,-8.9453125 l 1,-2.00000002007 h -8 C -68.872207,2.9200885 -68.872486,2.9193559 -68.886419,5.8189689 c -0.0054,1.149243 -0.01042,2.2654174 -0.01563,3.3808594 -0.0034,1.2451167 -0.0066,2.4536137 -0.0098,3.6621097 -0.01282,1.932217 -0.01282,1.932217 -0.02539,3.826172 -0.01571,4.437552 -0.03353,8.875014 -0.0625,13.3125 -1.430183,-1.824498 -2.852162,-3.654686 -4.265625,-5.492188 L -74.9997,22.25061 -76.734075,20.039672 -78.3747,17.891235 c -1.543364,-1.899929 -1.543364,-1.899929 -2.625,-3.890625 v -4 c -4.681127,-2.6368964 -4.681127,-2.6368965 -8,-7.0000005 l -2,-2.64062502 -2,-2.60937498 -2,-2.6406251 c -2.070338,-2.1835593 -3.064155,-2.7686073 -6,-3.109375 z m -216.62696,1.5019531 c -1.15623,0.011526 -2.77817,0.1994974 -5.37304,0.4980469 1.01254,3.0376442 1.17758,5.64763672 1.26562,8.8281251 l 0.0508,2.3398438 c 0.0648,2.479689 0.12778,4.9595877 0.18555,7.4394537 0.04,1.725625 0.0817,3.450235 0.125,5.175781 0.12983,5.071898 0.25481,10.144616 0.37305,15.216797 l -7,-1 c 1,2 1,2 3.0625,3.125 l 1.9375,0.875 -1,3 h 10 c -2.08568,-3.128515 -2.22743,-4.569337 -2.22657,-8.21875 l 0.0312,-2.074219 c 0.009,-2.201899 0.0207,-4.40368 0.0449,-6.605469 0.0173,-1.531539 0.031,-3.064099 0.041,-4.595703 0.0241,-4.502551 0.0599,-9.0035155 0.10938,-13.5058595 1.99056,2.985849 4.11709,5.7864241 6.3125,8.6250005 2.44253,3.135763 4.88384,6.267177 7.21875,9.484375 7.19468,10.016352 14.16143,18.024703 24.46875,24.890625 l 2,-1 c -2.82695,-1.643401 -2.82763,-1.643553 -4.625,-3.222656 -2.17501,-4.414758 -2.17425,-4.414652 -2.05469,-9.509766 0.0319,-1.032633 0.0628,-2.034848 0.0937,-3.037109 0.0265,-3.230379 0.0599,-6.459748 0.13281,-9.689454 0.052,-2.245216 0.0929,-4.490713 0.12305,-6.736328 0.0659,-6.0192878 0.15622,-12.0364969 0.28906,-18.0546876 0.0137,-0.5952231 0.0277,-1.1722835 0.041,-1.75 h -8 c 1.21542,2.0859477 1.21517,2.0854595 1.11328,5.07226569 -0.005,1.3272949 -0.0104,2.61604011 -0.0156,3.90429691 -0.004,2.1396885 -0.0113,4.2783078 -0.0234,6.4179688 -0.009,1.4898992 -0.0145,2.9807872 -0.0195,4.4707032 -0.0121,4.3783 -0.03,8.756515 -0.0547,13.134766 -2.07464,-2.585697 -4.13562,-5.176404 -6.15625,-7.804688 -1.20753,-1.581855 -2.41633,-3.164382 -3.63672,-4.736328 -1.93344,-2.488678 -3.85721,-4.9778947 -5.71289,-7.5253907 -1.02013,-1.408119 -2.04943,-2.8099236 -3.08985,-4.203125 l -1.52929,-2.04296881 c -1.34521,-1.91779919 -2.70534,-3.73284729 -4.25196,-5.49218759 -1.69023,-1.2455682 -2.32294,-1.7125695 -4.25,-1.6933594 z M 11.07452,-0.2630624 8.6253009,-0.1868905 C 5.7491235,-0.14006903 2.8758778,-0.08077478 3.0080748e-4,6.0947993e-4 1.2238195,3.8784911 1.2238038,3.8777282 1.1135821,8.0201408 c -0.00532,0.8457562 -0.010465,1.6673999 -0.015625,2.4882812 -0.00442,2.626172 -0.011338,5.250804 -0.023437,7.876953 -0.00864,1.82942 -0.014491,3.658849 -0.019531,5.488282 -0.00949,4.223001 -0.020992,8.446948 -0.039063,12.669922 -0.0054,1.175225 -0.010385,2.316372 -0.015625,3.457031 h 8.0000001 v -21 c 2.2668288,3.730823 4.5565528,7.385929 6.9999998,11 3.440823,4.750286 6.366838,9.097025 12.375,10.25 2.627007,0.345777 4.580395,0.729204 6.996094,1.855469 12.130381,6.618336 23.779211,7.712652 37.398438,7.070312 6.025929,-0.47896 11.119679,-1.603968 15.230469,-6.175781 -1.33622,0.321567 -2.668795,0.658265 -4,1 -2.811516,0.864049 -5.610358,1.650403 -8.46875,2.347656 C 59.439174,49.321084 44.341731,45.574839 30.566707,36.953735 24.353354,32.225156 20.467893,26.6647 19.000301,19.00061 h 2 c 2.503116,-1.744596 3.79108,-3.179136 4.550781,-6.164063 C 26.136053,8.5091702 26.513461,6.7703495 24.000301,3.0006095 19.637339,0.12105486 16.142607,-0.32486832 11.07452,-0.2630624 Z M -264.9997,6.0947993e-4 C -263.80463,2.0668954 -263.80463,2.0671396 -263.81025,4.9342033 l 0.0918,3.71875 c 0.0575,2.0503387 0.11429,4.0998957 0.16601,6.1503907 0.0687,2.807023 0.13629,5.615108 0.21485,8.421875 l 0.0566,1.990235 c 0.0558,2.262973 0.14149,4.525813 0.28125,6.785156 1.23961,3.718835 2.86186,5.289652 5.82812,7.765625 4.49208,2.55305 9.50134,1.71442 14.41016,0.832031 1.76172,-0.597656 1.76172,-0.597656 2.76172,-2.597656 l -2.11719,-0.183594 -2.75781,-0.253906 c -2.70661,-0.242901 -4.69112,-0.345561 -7.125,-1.5625 -2.81072,-2.820842 -3.92417,-4.423418 -4.45508,-8.414063 l 0.0645,-3.855468 c 0.0176,-2.118092 0.0391,-4.235885 0.0879,-6.353516 0.0347,-1.469246 0.062,-2.938685 0.082,-4.408203 0.0378,-3.4017324 0.0879,-6.8018176 0.15625,-10.2031255 l 0.0645,-2.76562502007 z m 26,0 C -237.74284,3.8772399 -237.74298,3.876477 -237.73408,8.0201408 l 0.0508,2.4882812 c 0.0649,2.626094 0.1279,5.250688 0.18555,7.876953 0.04,1.829466 0.0816,3.658894 0.125,5.488282 0.10214,4.222911 0.20286,8.446822 0.29688,12.669922 l 0.0762,3.457031 h 7 V 6.0947993e-4 Z m 32,0 C -208.26983,19.077951 -208.26959,19.076487 -211.64814,37.926391 l -0.35156,2.074219 h 7 c -0.16704,-4.714249 -0.24525,-9.339173 0.44531,-14.015625 1.13436,-6.103168 1.74792,-11.783644 1.625,-18.0000004 l -0.0703,-1.984375 h 2 c 0,3.4467505 0,3.4467509 3.61719,12.5195314 0.50374,1.243028 1.00634,2.486522 1.50781,3.730469 3.5361,9.061264 6.42395,18.454298 15.875,22.75 -1.08042,-1.620628 -2.16055,-3.242848 -3.23242,-4.869141 -0.99533,-2.154001 -0.99533,-2.154489 -0.20118,-4.554687 l 1.13672,-2.681641 1.22266,-2.982422 c 2.82335,-6.608647 5.81083,-13.111268 7.37109,-20.1503906 l 0.70313,-3.7617188 h 2 c -0.20613,5.7717064 0.22533,11.2818394 1,17.0000004 0.61059,4.507067 1.13942,8.943459 1.125,13.5 l -0.125,3.5 h 9 c -1.32839,-4.279555 -2.29516,-8.357952 -2.83594,-12.824219 -0.0795,-0.706484 -0.1572,-1.392419 -0.23437,-2.078125 -0.26662,-2.241253 -0.53136,-4.482312 -0.78907,-6.724609 -0.17822,-1.552979 -0.35859,-3.105713 -0.54101,-4.658204 -0.42529,-3.598334 -0.84834,-7.197378 -1.26367,-10.7968747 L -165.9997,6.0947993e-4 h -9 C -175.64026,1.9222982 -176.31437,3.8325163 -177.03095,5.7271721 l -1.25391,3.2539062 -1.22265,3.1757817 -1.55469,4.03125 -4.9375,12.8125 -12,-29.00000052007 z m 64,0 C -141.89176,3.8524765 -141.89225,3.8524766 -141.87079,7.3287346 l 0.004,3.9218754 c 0.002,1.427083 0.003,2.854166 0.004,4.28125 -0.006,2.238344 -0.0112,4.476494 -0.006,6.714844 0.004,1.465815 0.005,2.930662 0.004,4.396484 -9.9e-4,0.716191 -9.9e-4,1.412295 -0.002,2.107422 -0.002,2.417071 -0.0389,4.834753 -0.13281,7.25 l -1,4 h 24 l 2,-7 c -2.93433,1.3802 -5.30682,2.035779 -8.55078,2.414062 l -3.76172,0.210938 -6.6875,0.375 v -16 l 10,1 v -5 h -10 V 4.0006095 l 5.3125,0.4375 c 1.89865,0.1563598 3.79537,0.3407021 5.6875,0.5625 l 3,1.0000001 V 6.0947993e-4 Z m 100,0 V 40.00061 h 24.000001 l 1,-6 c -2.519627,0.757161 -4.816825,1.074845 -7.453126,1.316406 l -3.796875,0.246094 -6.75,0.4375 v -16 l 10,1 v -5 h -10 V 4.0006095 l 13.000001,1 V 6.0947993e-4 Z m 102.000002,0 C 58.478478,4.6592052 57.108553,8.6198886 55.371395,12.930297 l -1.058594,2.570313 c -3.011118,7.41597 -6.099783,14.796175 -9.28125,22.140625 l -1.03125,2.359375 h 8 c -0.118314,-2.736033 0.0015,-5.006083 0.65625,-7.675781 l 0.84375,-2.636719 1.500001,-4.6875 h 16 c 0,2 0,2 0.875,5.039062 l 1.125,3.585938 c 0.664032,2.125825 1.329917,4.251075 2,6.375 h 9 v -2 c 2.25,0 2.25,0 8,-5 -2,-1 -2,-1 -4.382813,-0.441406 l -2.742187,0.878906 -2.757813,0.871094 -2.117187,0.691406 c 0,-3 -4.89e-4,-3.001221 -0.837891,-5.289063 L 78.000302,27.00061 76.763974,23.953735 75.398739,20.606078 c -0.749595,-1.839469 -1.500173,-3.680156 -2.25,-5.519531 C 72.628823,13.811181 72.109944,12.53579 71.590145,11.260375 70.060397,7.506632 68.530457,3.7541873 67.000302,6.0947993e-4 Z M -350.39228,0.59240636 c -1.03553,-0.0429236 -2.07144,-0.0420089 -3.10547,0.001953 -2.23892,0.095188 -4.46514,0.39750101 -6.63867,0.91406254 -1.35228,0.2129705 -2.28818,0.3608865 -3.06641,0.4570313 -1.91134,0.1012433 -3.82662,0.1095054 -5.79687,0.035156 -2.7752,-0.6205113 -5.43603,-0.9662613 -8.20118,-1.11132816 -0.82978,-0.0440249 -1.66853,-0.0707655 -2.52343,-0.0800781 l -2.08789,0.003906 c -1.57152,0.001784 -3.1979,-0.0312848 -4.82813,-0.007813 h -0.002 c -1.62958,0.0235081 -3.26338,0.10276826 -4.84766,0.33007816 -2.77321,0.3979545 -5.39918,1.24955 -7.5957,3.0390626 -0.31343,0.2554423 -0.61886,0.5310243 -0.91406,0.8261718 5.19544,-0.7636821 10.2068,-1.1082399 15.45703,-1.0878906 l 2.54297,0.025391 c 3.00012,0.015556 5.99993,0.035282 9,0.0625 l 1,2 -4,2.0000001 6,-1.0000001 0.0996,-0.029297 c 5.00404,-1.3926674 7.57627,-0.4896923 11.84961,1.8378906 h 0.002 l 1.92383,1.1289063 c 2.38571,1.3380552 4.76008,2.6874782 7.125,4.0625002 -2.22031,0.553969 -4.439,1.11358 -6.65625,1.679687 l -2.71875,0.695313 -2.69532,0.671875 -2.57812,0.664062 c -3.01051,0.762663 -4.11268,1.050178 -6.35156,3.289063 l 2.48437,0.472656 3.26563,0.589844 c 3.01197,0.556561 5.4627,1.089168 8.48047,0.507812 2.35099,-0.757716 4.31476,-0.75914 6.76953,-0.570312 3,2 3,2 5.59375,3.070312 l 2.90625,1.054688 c 6.02558,2.2191 9.34467,1.733211 15.5,-0.125 l 1,-5 -2.4375,-1.5 c -2.96923,-2.368078 -2.96923,-2.368078 -3,-6.4375 -0.0531,-0.714531 -0.10469,-1.408048 -0.15625,-2.101563 -0.35581,-1.7174751 -1.08411,-2.9389089 -2.1211,-3.9980467 -0.17954,-0.2168915 -0.37839,-0.4521481 -0.59765,-0.7128906 -0.36277,-0.2550297 -0.72891,-0.5005301 -1.09766,-0.7343751 -0.21658,-0.1612269 -0.44062,-0.3217795 -0.67187,-0.484375 -0.53988,-0.2902815 -1.08723,-0.5668731 -1.64258,-0.8300781 -1.77433,-0.8971013 -3.60757,-1.5815915 -5.48633,-2.0878906 -2.97848,-0.8757465 -6.07506,-1.39271361 -9.18164,-1.52148439 z M 10.740535,2.8443595 c 2.52472,-0.04793 4.531607,0.3066299 7.197266,1.78125 2.0625,2.375 2.0625,2.3750001 2.625,5.3125001 -0.694262,3.7798724 -1.779354,5.4297944 -4.5625,8.0625004 -2.75,0.8125 -1.689453,-0.552735 -3.939453,-0.365235 C 8.0440794,12.78178 7.7189393,8.9508861 8.0003009,3.0006095 9.0008627,2.9221341 9.8989625,2.8603362 10.740535,2.8443595 Z M -348.9997,2.8560783 c 0.0293,0.00524 0.0586,0.010372 0.0879,0.015625 l 2.09961,0.3789062 c 2.70395,0.4398775 5.14983,1.0105233 7.8125,1.75 3.79358,2.4474704 4.79791,3.4225984 6.3125,7.7500005 l 0.6875,3.25 c -2.8125,0.3125 -2.8125,0.3125 -6,0 -1.875,-2.5 -1.875,-2.5 -3,-5 l -2,3 -12.37891,-5.8632817 0.37891,-1.1367187 -6,-3.0000001 12,-1 z M 62.000302,5.0006095 h 2 c 0.837193,2.2903231 1.669893,4.5821093 2.5,6.8750005 l 0.722656,1.972656 c 1.777344,4.925782 1.777344,4.925782 1.777344,7.152344 h -12 c 0.778188,-3.890943 1.688737,-7.134363 3.0625,-10.8125 L 61.160458,7.2310783 Z M 104.63702,20.924438 c 0.67201,-0.01 1.43428,0.02596 2.36328,0.07617 -2.39509,2.899323 -4.31245,3.501683 -7.999998,4 v -2 c 2.420938,-1.613958 3.620698,-2.04628 5.636718,-2.076172 z"
         transform="translate(418,22)" /></g></g></svg>
